<svg xmlns="http://www.w3.org/2000/svg" viewBox="0 0 100 100" preserveAspectRatio="xMidYMid" width="205" height="205" style="shape-rendering: auto; display: block; background: rgb(255, 255, 255);" xmlns:xlink="http://www.w3.org/1999/xlink"><g><g transform="rotate(0 50 50)">
  <rect fill="#c2a79a" height="17" width="7" ry="7.99" rx="3.5" y="24.5" x="46.5">
    <animate repeatCount="indefinite" begin="-0.8391608391608392s" dur="0.9090909090909091s" keyTimes="0;1" values="1;0" attributeName="opacity"></animate>
  </rect>
</g><g transform="rotate(27.692307692307693 50 50)">
  <rect fill="#c2a79a" height="17" width="7" ry="7.99" rx="3.5" y="24.5" x="46.5">
    <animate repeatCount="indefinite" begin="-0.7692307692307692s" dur="0.9090909090909091s" keyTimes="0;1" values="1;0" attributeName="opacity"></animate>
  </rect>
</g><g transform="rotate(55.38461538461539 50 50)">
  <rect fill="#c2a79a" height="17" width="7" ry="7.99" rx="3.5" y="24.5" x="46.5">
    <animate repeatCount="indefinite" begin="-0.6993006993006993s" dur="0.9090909090909091s" keyTimes="0;1" values="1;0" attributeName="opacity"></animate>
  </rect>
</g><g transform="rotate(83.07692307692308 50 50)">
  <rect fill="#c2a79a" height="17" width="7" ry="7.99" rx="3.5" y="24.5" x="46.5">
    <animate repeatCount="indefinite" begin="-0.6293706293706294s" dur="0.9090909090909091s" keyTimes="0;1" values="1;0" attributeName="opacity"></animate>
  </rect>
</g><g transform="rotate(110.76923076923077 50 50)">
  <rect fill="#c2a79a" height="17" width="7" ry="7.99" rx="3.5" y="24.5" x="46.5">
    <animate repeatCount="indefinite" begin="-0.5594405594405594s" dur="0.9090909090909091s" keyTimes="0;1" values="1;0" attributeName="opacity"></animate>
  </rect>
</g><g transform="rotate(138.46153846153845 50 50)">
  <rect fill="#c2a79a" height="17" width="7" ry="7.99" rx="3.5" y="24.5" x="46.5">
    <animate repeatCount="indefinite" begin="-0.4895104895104895s" dur="0.9090909090909091s" keyTimes="0;1" values="1;0" attributeName="opacity"></animate>
  </rect>
</g><g transform="rotate(166.15384615384616 50 50)">
  <rect fill="#c2a79a" height="17" width="7" ry="7.99" rx="3.5" y="24.5" x="46.5">
    <animate repeatCount="indefinite" begin="-0.4195804195804196s" dur="0.9090909090909091s" keyTimes="0;1" values="1;0" attributeName="opacity"></animate>
  </rect>
</g><g transform="rotate(193.84615384615384 50 50)">
  <rect fill="#c2a79a" height="17" width="7" ry="7.99" rx="3.5" y="24.5" x="46.5">
    <animate repeatCount="indefinite" begin="-0.34965034965034963s" dur="0.9090909090909091s" keyTimes="0;1" values="1;0" attributeName="opacity"></animate>
  </rect>
</g><g transform="rotate(221.53846153846155 50 50)">
  <rect fill="#c2a79a" height="17" width="7" ry="7.99" rx="3.5" y="24.5" x="46.5">
    <animate repeatCount="indefinite" begin="-0.2797202797202797s" dur="0.9090909090909091s" keyTimes="0;1" values="1;0" attributeName="opacity"></animate>
  </rect>
</g><g transform="rotate(249.23076923076923 50 50)">
  <rect fill="#c2a79a" height="17" width="7" ry="7.99" rx="3.5" y="24.5" x="46.5">
    <animate repeatCount="indefinite" begin="-0.2097902097902098s" dur="0.9090909090909091s" keyTimes="0;1" values="1;0" attributeName="opacity"></animate>
  </rect>
</g><g transform="rotate(276.9230769230769 50 50)">
  <rect fill="#c2a79a" height="17" width="7" ry="7.99" rx="3.5" y="24.5" x="46.5">
    <animate repeatCount="indefinite" begin="-0.13986013986013984s" dur="0.9090909090909091s" keyTimes="0;1" values="1;0" attributeName="opacity"></animate>
  </rect>
</g><g transform="rotate(304.61538461538464 50 50)">
  <rect fill="#c2a79a" height="17" width="7" ry="7.99" rx="3.5" y="24.5" x="46.5">
    <animate repeatCount="indefinite" begin="-0.06993006993006992s" dur="0.9090909090909091s" keyTimes="0;1" values="1;0" attributeName="opacity"></animate>
  </rect>
</g><g transform="rotate(332.3076923076923 50 50)">
  <rect fill="#c2a79a" height="17" width="7" ry="7.99" rx="3.5" y="24.5" x="46.5">
    <animate repeatCount="indefinite" begin="0s" dur="0.9090909090909091s" keyTimes="0;1" values="1;0" attributeName="opacity"></animate>
  </rect>
</g><g></g></g><!-- [ldio] generated by https://loading.io --></svg>